<svg xmlns="http://www.w3.org/2000/svg" version="1.2" viewBox="0 0 200 200">
  <path fill="#bdbdbd" fill-rule="evenodd" d="M98.5 7.2c3.3-.1 10.1.5 15 1.3s11.5 2.2 14.5 3.1c3 .9 9.1 3.4 13.5 5.6 4.4 2.2 11.1 6.4 15 9.3 3.9 2.9 9.7 8.5 13 12.4 3.3 3.9 8.2 10.8 10.8 15.4 2.6 4.5 6.1 12.4 7.7 17.4 1.7 5.1 3.5 13.5 4.1 18.6.5 5 .7 11.9.4 15.2-.3 3.3-1.1 8.9-1.7 12.5-.6 3.6-2.2 9.4-3.5 13-1.4 3.6-3.6 8.8-5 11.5-1.4 2.7-4.4 7.7-6.6 11-2.3 3.3-7.3 9.2-11.2 13.1-3.8 3.8-9.5 8.6-12.5 10.5-3 2-7.5 4.6-10 5.9-2.5 1.3-8.3 3.6-13 5.2-4.7 1.5-12.3 3.3-17 3.9-4.8.7-12.9.9-18.5.6-5.5-.4-13.4-1.5-17.5-2.6-4.1-1-10.7-3.2-14.5-4.8-3.8-1.6-10.4-5.2-14.5-8-4.1-2.7-10.4-7.9-13.9-11.4s-8.3-9.3-10.7-12.9c-2.3-3.6-5.9-9.9-7.8-14-2-4.1-4.6-11.1-5.8-15.5-1.8-6.6-2.1-10.7-2.1-23.5 0-12.9.3-16.9 2.2-23.5 1.2-4.4 3.8-11.4 5.8-15.5s5.7-10.6 8.3-14.5c2.6-3.9 7.6-9.7 11.1-13.1 3.5-3.4 10-8.4 14.4-11.3a93.3 93.3 0 0 1 16-8.2c4.4-1.7 11.1-3.7 15-4.5 3.9-.7 8.4-1.5 10-1.7 1.6-.2 5.7-.5 9-.5zM59 37.8c-3 2-8.2 6-11.4 9.1-3.2 3.1-7.7 8.3-9.8 11.6-3.1 4.7-3.6 6.1-2.4 6.5.8.3 6.2.4 12 .2L58 65c2.7-6.6 5.4-12.6 7.8-17.5 2.4-4.9 5.5-10.5 6.8-12.3 1.3-1.7 2.3-3.6 2.1-4.1-.2-.6-2.5 0-5.3 1.1-2.7 1.2-7.4 3.7-10.4 5.6zm66.9-2.3c1.6 2.2 4.6 7.6 6.8 12s4.9 10.2 5.9 12.8l1.9 4.8c18.2-.1 23.5-.4 23.5-.9 0-.4-1.5-3-3.3-5.7a96.5 96.5 0 0 0-8.8-10.6c-3-3-7.9-7.2-10.9-9.2-3-2-8.1-4.7-11.2-6.1-3.1-1.4-5.9-2.2-6.2-1.8-.3.4.7 2.5 2.3 4.7zM82 54.2c-2.2 4.3-4 8.5-4 9.3 0 1.3 3.1 1.5 21.5 1.5 11.8 0 21.5-.2 21.5-.5s-1-2.9-2.3-5.8c-1.3-2.8-4.1-7.9-6.2-11.2-2.1-3.3-5.9-8.2-8.4-10.8-2.5-2.6-4.9-4.8-5.3-4.7-.4 0-3.5 3.3-6.8 7.2-3.3 4-7.8 10.8-10 15zM26.3 85.7c-.4 1.5-.8 8-.8 14.3 0 6.3.3 12.7.7 14.2l.8 2.8 26.3-.5v-33l-26.2-.6zM71.5 100c0 7.4.3 14.3.7 15.3.7 1.6 3 1.7 27.3 1.7 22.7 0 26.6-.2 27-1.5.3-.8.5-7.9.5-15.7 0-10.2-.3-14.6-1.2-15.5-1-1-7.6-1.3-27.1-1.3-23.6 0-25.8.2-26.5 1.8-.4.9-.7 7.8-.7 15.2zm73.5 17h26c1.8-4.3 2.3-10.6 2.3-17-.1-6.3-.6-12.7-1.2-14.2L171 83h-26zM37.9 142c1.6 2.5 6.4 7.9 10.8 12 5.4 5.2 10.6 8.9 16.5 12 4.8 2.5 8.9 4.2 9.2 3.8.3-.4-.9-3.1-2.8-6-1.8-2.9-4.4-7.3-5.6-9.8-1.3-2.5-3.6-7.6-5-11.5l-2.8-7c-20.4-.5-23.2-.2-23.2.7 0 .7 1.3 3.3 2.9 5.8zm43.2 2.3c1.8 3.4 4.5 8.2 6.2 10.7a73 73 0 0 0 7.2 8.8c2.2 2.4 4.6 4.3 5.2 4.3.7-.1 3.7-3.1 6.7-6.8 3-3.7 7.2-10.2 9.5-14.3 2.2-4.1 4.1-8.5 4.1-9.7V135c-39 0-42 .2-42 1.5 0 .8 1.4 4.3 3.1 7.8zm57.8-4.5c-1.1 2.6-3.8 8.3-5.9 12.7-2.1 4.4-5.2 10-6.8 12.5-1.7 2.5-2.7 4.6-2.2 4.8.6.1 3.6-.9 6.7-2.4 3.2-1.4 8.5-4.5 11.8-6.8 3.3-2.4 8.3-6.8 11.1-9.7 2.8-3 6.2-7.3 7.7-9.6 1.5-2.4 2.5-4.7 2.2-5.3-.3-.6-5.2-1-11.5-1h-11.1z"/>
</svg>
